<mxfile host="app.diagrams.net" modified="2023-07-18T06:43:05.815Z" agent="Mozilla/5.0 (Windows NT 10.0; Win64; x64; rv:109.0) Gecko/20100101 Firefox/114.0" etag="9SumbGRRA9ZwP2xdafjs" version="21.6.2" type="github">
  <diagram name="Page-1" id="jT81VOFueob0oWWeU9Mt">
    <mxGraphModel dx="2074" dy="1152" grid="1" gridSize="10" guides="1" tooltips="1" connect="1" arrows="1" fold="1" page="1" pageScale="1" pageWidth="1100" pageHeight="850" math="0" shadow="0">
      <root>
        <mxCell id="0" />
        <mxCell id="1" parent="0" />
        <mxCell id="Kx07bvd-4rYV5RhQG2fd-19" value="Registers" style="rounded=1;whiteSpace=wrap;html=1;" vertex="1" parent="1">
          <mxGeometry x="490.5" y="30" width="120" height="60" as="geometry" />
        </mxCell>
        <mxCell id="Kx07bvd-4rYV5RhQG2fd-20" value="&lt;div&gt;L1 Cache&lt;/div&gt;" style="rounded=1;whiteSpace=wrap;html=1;" vertex="1" parent="1">
          <mxGeometry x="460.5" y="120" width="180" height="60" as="geometry" />
        </mxCell>
        <mxCell id="Kx07bvd-4rYV5RhQG2fd-21" value="L2 Cache" style="rounded=1;whiteSpace=wrap;html=1;" vertex="1" parent="1">
          <mxGeometry x="430.5" y="210" width="240" height="60" as="geometry" />
        </mxCell>
        <mxCell id="Kx07bvd-4rYV5RhQG2fd-22" value="L3 Cache" style="rounded=1;whiteSpace=wrap;html=1;" vertex="1" parent="1">
          <mxGeometry x="378" y="300" width="345" height="60" as="geometry" />
        </mxCell>
        <mxCell id="Kx07bvd-4rYV5RhQG2fd-23" value="Memory (RAM)" style="rounded=1;whiteSpace=wrap;html=1;" vertex="1" parent="1">
          <mxGeometry x="320.5" y="390" width="460" height="60" as="geometry" />
        </mxCell>
        <mxCell id="Kx07bvd-4rYV5RhQG2fd-24" value="Storage (HDD, SSD, NVMe)" style="rounded=1;whiteSpace=wrap;html=1;" vertex="1" parent="1">
          <mxGeometry x="250.5" y="480" width="600" height="60" as="geometry" />
        </mxCell>
        <mxCell id="Kx07bvd-4rYV5RhQG2fd-25" value="&lt;font style=&quot;font-size: 26px;&quot;&gt;Faster/Smaller&lt;/font&gt;" style="text;html=1;strokeColor=none;fillColor=none;align=center;verticalAlign=middle;whiteSpace=wrap;rounded=0;" vertex="1" parent="1">
          <mxGeometry x="10" y="30" width="190" height="50" as="geometry" />
        </mxCell>
        <mxCell id="Kx07bvd-4rYV5RhQG2fd-26" value="&lt;font style=&quot;font-size: 26px;&quot;&gt;Slower/Larger&lt;/font&gt;" style="text;html=1;strokeColor=none;fillColor=none;align=center;verticalAlign=middle;whiteSpace=wrap;rounded=0;" vertex="1" parent="1">
          <mxGeometry x="10" y="490" width="190" height="50" as="geometry" />
        </mxCell>
      </root>
    </mxGraphModel>
  </diagram>
</mxfile>
